; NON-PLATED HOLES START AT T1
; THROUGH (PLATED) HOLES START AT T100
M48
INCH
T1C0.086614
T100C0.038000
T101C0.015748
T102C0.035433
T103C0.043307
%
T1
X005984Y019972
X025984Y008472
X009484Y001472
X000984Y003472
X019484Y016972
X002984Y019972
X000984Y006972
T100
X009484Y019972
X024984Y018972
X021484Y007972
X012984Y010472
X017984Y000972
X022984Y018972
X010484Y019972
X015484Y018972
X005984Y012972
X012984Y000972
X016484Y019972
X019984Y019972
X025984Y014472
X011484Y019972
X022984Y019972
X023984Y001972
X022484Y007972
X011484Y018972
X007984Y012972
X001484Y014472
X004984Y007972
X014484Y019972
X025984Y003472
X007984Y007972
X023984Y019972
X013984Y000972
X006984Y012972
X007484Y019972
X024984Y003472
X024984Y005472
X018984Y018972
X025984Y017472
X018484Y007972
X011984Y001972
X010484Y018972
X014484Y018972
X015984Y000972
X025984Y016472
X025984Y004472
X006984Y007972
X010984Y000972
X019984Y001972
X016984Y000972
X017984Y001972
X022984Y000972
X013984Y001972
X014984Y001972
X001484Y017472
X019484Y012972
X020484Y012972
X025984Y006472
X012484Y018972
X024984Y011972
X010984Y001972
X012984Y001972
X017484Y007972
X025984Y015472
X021984Y019972
X020984Y000972
X008984Y012972
X014484Y007972
X007484Y018972
X025984Y011972
X018484Y012972
X009984Y012972
X017984Y018972
X015484Y007972
X013484Y019972
X015484Y019972
X012484Y019972
X020484Y007972
X020984Y018972
X024984Y019972
X025984Y010972
X013484Y018972
X020984Y019972
X017484Y012972
X022984Y001972
X024984Y006472
X012984Y009472
X021984Y000972
X024984Y010972
X019484Y007972
X016484Y018972
X012984Y011472
X011984Y000972
X014984Y000972
X018984Y019972
X021984Y001972
X020984Y001972
X023984Y018972
X024984Y000972
X025984Y005472
X024984Y004472
X005984Y007972
X024984Y001972
X008484Y018972
X015984Y001972
X001484Y016472
X016484Y012972
X017984Y019972
X016984Y001972
X004984Y012972
X021984Y018972
X019984Y000972
X023984Y000972
X008484Y019972
X025984Y013472
X009984Y007972
X019984Y018972
X016484Y007972
X009484Y018972
X008984Y007972
X001484Y015472
T101
X021484Y011472
X012984Y004472
X018471Y009481
X002979Y006552
X018984Y004472
X015484Y006972
X023984Y010972
X018984Y005472
X012984Y005472
T102
X015984Y003472
X007484Y017472
X010484Y016472
X011484Y017472
X014484Y016472
X016984Y003472
T103
X001984Y001972
X001984Y005472
X002984Y001972
X002984Y003972
X002984Y002972
T00
M30
