G04 MADE WITH FRITZING*
G04 WWW.FRITZING.ORG*
G04 DOUBLE SIDED*
G04 HOLES PLATED*
G04 CONTOUR ON CENTER OF CONTOUR VECTOR*
%ASAXBY*%
%FSLAX23Y23*%
%MOIN*%
%OFA0B0*%
%SFA1.0B1.0*%
%ADD10C,0.039370*%
%ADD11C,0.075433*%
%ADD12C,0.083307*%
%ADD13C,0.078000*%
%ADD14C,0.048000*%
%ADD15C,0.024000*%
%LNCOPPER0*%
G90*
G70*
G54D10*
X298Y655D03*
X1898Y547D03*
G54D11*
X1048Y1647D03*
X1448Y1647D03*
X748Y1747D03*
X1148Y1747D03*
G54D10*
X1898Y447D03*
X1298Y447D03*
G54D12*
X198Y547D03*
G54D10*
X1298Y547D03*
G54D12*
X198Y197D03*
G54D10*
X1548Y697D03*
G54D13*
X998Y797D03*
X898Y797D03*
X798Y797D03*
X698Y797D03*
X598Y797D03*
X498Y797D03*
X998Y1297D03*
X898Y1297D03*
X798Y1297D03*
X698Y1297D03*
X598Y1297D03*
X498Y1297D03*
X2248Y797D03*
X2148Y797D03*
X2048Y797D03*
X1948Y797D03*
X1848Y797D03*
X1748Y797D03*
X1648Y797D03*
X1548Y797D03*
X1448Y797D03*
X2048Y1297D03*
X1948Y1297D03*
X1848Y1297D03*
X1748Y1297D03*
X1648Y1297D03*
X148Y1747D03*
X148Y1647D03*
X148Y1547D03*
X148Y1447D03*
X1298Y1147D03*
X1298Y1047D03*
X1298Y947D03*
G54D10*
X1847Y948D03*
G54D11*
X1698Y347D03*
G54D10*
X2148Y1147D03*
G54D11*
X1598Y347D03*
G54D10*
X2398Y1097D03*
G54D13*
X2498Y647D03*
X2498Y547D03*
X2498Y447D03*
X2498Y347D03*
X2598Y1747D03*
X2598Y1647D03*
X2598Y1547D03*
X2598Y1447D03*
X2598Y1347D03*
G54D12*
X298Y397D03*
X298Y297D03*
X298Y197D03*
G54D13*
X2598Y647D03*
X2598Y547D03*
X2598Y447D03*
X2598Y347D03*
X2598Y1097D03*
X2598Y1197D03*
X2598Y1097D03*
X2598Y1197D03*
X2498Y1197D03*
X2498Y1097D03*
X1998Y97D03*
X2098Y97D03*
X2198Y97D03*
X2298Y97D03*
X2398Y97D03*
X2498Y97D03*
X1098Y97D03*
X1198Y97D03*
X1298Y97D03*
X1398Y97D03*
X1498Y97D03*
X1598Y97D03*
X1698Y97D03*
X1798Y97D03*
X1648Y1897D03*
X1548Y1897D03*
X1448Y1897D03*
X1348Y1897D03*
X1248Y1897D03*
X1148Y1897D03*
X1048Y1897D03*
X948Y1897D03*
X848Y1897D03*
X748Y1897D03*
X2498Y197D03*
X2398Y197D03*
X2298Y197D03*
X2198Y197D03*
X2098Y197D03*
X1998Y197D03*
X1798Y197D03*
X1698Y197D03*
X1598Y197D03*
X1498Y197D03*
X1398Y197D03*
X1298Y197D03*
X1198Y197D03*
X1098Y197D03*
X2498Y1897D03*
X2398Y1897D03*
X2298Y1897D03*
X2198Y1897D03*
X2098Y1897D03*
X1998Y1897D03*
X1898Y1897D03*
X1798Y1897D03*
X1798Y1997D03*
X1898Y1997D03*
X1998Y1997D03*
X2098Y1997D03*
X2198Y1997D03*
X2298Y1997D03*
X2398Y1997D03*
X2498Y1997D03*
X748Y1997D03*
X848Y1997D03*
X948Y1997D03*
X1048Y1997D03*
X1148Y1997D03*
X1248Y1997D03*
X1348Y1997D03*
X1448Y1997D03*
X1548Y1997D03*
X1648Y1997D03*
G54D14*
X1891Y547D02*
X1306Y547D01*
D02*
X1891Y447D02*
X1306Y447D01*
G54D15*
D02*
X298Y647D02*
X298Y419D01*
D02*
X399Y948D02*
X699Y948D01*
D02*
X699Y948D02*
X698Y816D01*
D02*
X2398Y697D02*
X1556Y697D01*
D02*
X2398Y1089D02*
X2398Y697D01*
D02*
X1949Y1146D02*
X1949Y1198D01*
D02*
X1949Y1198D02*
X2479Y1197D01*
D02*
X1949Y1146D02*
X1317Y1147D01*
D02*
X1948Y816D02*
X1949Y1146D01*
D02*
X1839Y948D02*
X1317Y947D01*
D02*
X2048Y1148D02*
X2141Y1147D01*
D02*
X2048Y816D02*
X2048Y1148D01*
D02*
X748Y347D02*
X1581Y347D01*
D02*
X2398Y1878D02*
X2399Y1547D01*
D02*
X549Y1548D02*
X398Y1747D01*
D02*
X398Y1747D02*
X167Y1747D01*
D02*
X2399Y1547D02*
X549Y1548D01*
D02*
X398Y1647D02*
X167Y1647D01*
D02*
X498Y1497D02*
X398Y1647D01*
D02*
X2499Y1497D02*
X498Y1497D01*
D02*
X2498Y1878D02*
X2499Y1497D01*
D02*
X348Y1448D02*
X167Y1447D01*
D02*
X348Y647D02*
X348Y1448D01*
D02*
X1498Y297D02*
X699Y297D01*
D02*
X699Y297D02*
X348Y647D01*
D02*
X1498Y216D02*
X1498Y297D01*
D02*
X399Y1447D02*
X398Y1547D01*
D02*
X399Y948D02*
X399Y1447D01*
D02*
X398Y1547D02*
X167Y1547D01*
D02*
X398Y697D02*
X399Y948D01*
D02*
X748Y347D02*
X398Y697D01*
D02*
X399Y1447D02*
X2579Y1447D01*
G04 End of Copper0*
M02*